<svg width="32" height="32" viewBox="0 0 32 32" fill="none" xmlns="http://www.w3.org/2000/svg">
<path fill-rule="evenodd" clip-rule="evenodd" d="M24.4724 5.56224C23.9672 5.56224 23.4827 5.76292 23.1255 6.12013C22.7683 6.47735 22.5676 6.96183 22.5676 7.467C22.5676 7.97218 22.7683 8.45666 23.1255 8.81387C23.4827 9.17109 23.9672 9.37177 24.4724 9.37177C24.9775 9.37177 25.462 9.17109 25.8192 8.81387C26.1765 8.45666 26.3771 7.97218 26.3771 7.467C26.3771 6.96183 26.1765 6.47735 25.8192 6.12013C25.462 5.76292 24.9775 5.56224 24.4724 5.56224ZM16 21.2331C14.5962 21.2325 13.2502 20.6743 12.258 19.6812C11.2658 18.6882 10.7087 17.3416 10.7093 15.9379C10.7099 14.5341 11.2682 13.188 12.2612 12.1958C13.2543 11.2037 14.6008 10.6466 16.0046 10.6472C17.4083 10.6478 18.7544 11.206 19.7466 12.1991C20.7388 13.1921 21.2958 14.5387 21.2952 15.9424C21.2946 17.3462 20.7364 18.6923 19.7433 19.6844C18.7503 20.6766 17.4038 21.2337 16 21.2331ZM16 7.79005C14.9163 7.7691 13.8394 7.96444 12.8321 8.36464C11.8249 8.76485 10.9075 9.36189 10.1338 10.1208C9.36 10.8798 8.74533 11.7854 8.32572 12.7848C7.90612 13.7841 7.68999 14.8571 7.68999 15.9409C7.68999 17.0248 7.90612 18.0977 8.32572 19.0971C8.74533 20.0964 9.36 21.002 10.1338 21.761C10.9075 22.5199 11.8249 23.117 12.8321 23.5172C13.8394 23.9174 14.9163 24.1127 16 24.0918C18.1617 24.0918 20.2349 23.233 21.7635 21.7044C23.2921 20.1759 24.1509 18.1027 24.1509 15.9409C24.1509 13.7792 23.2921 11.706 21.7635 10.1774C20.2349 8.6488 18.1617 7.79005 16 7.79005ZM28.9219 22.3546C28.8503 23.9028 28.5912 24.7424 28.3733 25.3017C28.0838 26.0438 27.7425 26.5725 27.1863 27.1272C26.6754 27.6555 26.0512 28.0609 25.3608 28.3127C24.803 28.5322 23.9619 28.7897 22.4137 28.8613C20.7406 28.9375 20.2392 28.9542 15.9985 28.9542C11.7623 28.9542 11.2594 28.9375 9.58628 28.8613C8.03809 28.7897 7.19847 28.5322 6.63923 28.3127C5.94919 28.0601 5.32514 27.6548 4.8137 27.1272C4.28602 26.6152 3.87986 25.9914 3.62513 25.3017C3.40875 24.7424 3.1497 23.9028 3.07961 22.3546C3.00342 20.6815 2.98818 20.1786 2.98818 15.9424C2.98818 11.7017 3.00342 11.2003 3.07961 9.52719C3.1497 7.979 3.40875 7.13938 3.62666 6.58015C3.91313 5.83653 4.25751 5.30929 4.8137 4.75462C5.36989 4.19843 5.89866 3.85557 6.63923 3.56605C7.19847 3.34815 8.03809 3.09062 9.58628 3.02053C11.2594 2.94434 11.7608 2.9291 16 2.9291C20.2392 2.9291 20.7406 2.94434 22.4137 3.02053C23.9619 3.09062 24.803 3.34815 25.3608 3.56757C26.051 3.82059 26.675 4.22639 27.1863 4.75462C27.7425 5.30929 28.0853 5.83653 28.3749 6.58015C28.5912 7.13938 28.8503 7.979 28.9219 9.52719C28.9981 11.2003 29.0133 11.7017 29.0133 15.9424C29.0133 20.1786 28.9981 20.6815 28.9219 22.3546ZM31.779 9.39767C31.7013 7.70624 31.4331 6.55272 31.0415 5.54243C30.6425 4.48341 30.0169 3.52439 29.2084 2.73253C28.4159 1.92511 27.457 1.30007 26.3985 0.900907C25.3867 0.509288 24.2347 0.23805 22.5432 0.164907C20.8518 0.0856685 20.3109 0.0673828 16 0.0673828C11.6907 0.0673828 11.1482 0.0871923 9.45675 0.164907C7.76532 0.239573 6.6118 0.509288 5.60151 0.900907C4.54305 1.30029 3.58422 1.9253 2.79161 2.73253C1.98351 3.52502 1.35839 4.48455 0.959989 5.54396C0.56837 6.55272 0.300179 7.70777 0.223989 9.39767C0.144751 11.0891 0.126465 11.6316 0.126465 15.9424C0.126465 20.2502 0.146274 20.7927 0.223989 22.4841C0.300179 24.1741 0.56837 25.3291 0.959989 26.3379C1.35931 27.3968 1.98431 28.3561 2.79161 29.1493C3.67542 30.0331 4.55923 30.5741 5.60304 30.9794C6.6118 31.3725 7.76685 31.6422 9.45675 31.7184C11.1482 31.7946 11.6907 31.8144 16 31.8144C20.3109 31.8144 20.8518 31.7962 22.5432 31.7184C24.2347 31.6422 25.3867 31.3725 26.3985 30.9794C27.4569 30.5814 28.4158 29.9574 29.2084 29.1508C30.0163 28.3573 30.6419 27.3974 31.0415 26.3379C31.4331 25.3291 31.7013 24.1741 31.779 22.4841C31.8537 20.7927 31.872 20.2502 31.872 15.9424C31.872 11.6301 31.8537 11.0876 31.779 9.39767Z" fill="#EEF3F4"/>
</svg>
