<svg width="32" height="33" viewBox="0 0 32 33" fill="none" xmlns="http://www.w3.org/2000/svg">
<path d="M29.6 0.94043H2.4C1.76348 0.94043 1.15303 1.19329 0.702944 1.64337C0.252856 2.09346 0 2.70391 0 3.34043V30.5404C0 31.177 0.252856 31.7874 0.702944 32.2375C1.15303 32.6876 1.76348 32.9404 2.4 32.9404H29.6C30.2365 32.9404 30.847 32.6876 31.2971 32.2375C31.7471 31.7874 32 31.177 32 30.5404V3.34043C32 2.70391 31.7471 2.09346 31.2971 1.64337C30.847 1.19329 30.2365 0.94043 29.6 0.94043ZM9.6 28.1404H4.8V13.7404H9.6V28.1404ZM7.2 10.9404C6.64989 10.9247 6.11662 10.7472 5.6668 10.4302C5.21699 10.1131 4.87058 9.67049 4.67087 9.15767C4.47116 8.64485 4.427 8.08456 4.5439 7.54678C4.66081 7.00901 4.9336 6.51761 5.32818 6.13399C5.72277 5.75036 6.22165 5.49152 6.7625 5.38981C7.30336 5.2881 7.86219 5.34802 8.36918 5.5621C8.87617 5.77617 9.30883 6.1349 9.6131 6.59347C9.91738 7.05203 10.0798 7.5901 10.08 8.14043C10.0674 8.89299 9.75734 9.60995 9.21768 10.1346C8.67802 10.6593 7.95262 10.949 7.2 10.9404ZM27.2 28.1404H22.4V20.5564C22.4 18.2844 21.44 17.4684 20.192 17.4684C19.8261 17.4928 19.4686 17.5892 19.1401 17.7521C18.8115 17.915 18.5184 18.1413 18.2776 18.4178C18.0367 18.6943 17.8529 19.0157 17.7366 19.3635C17.6203 19.7113 17.5739 20.0786 17.6 20.4444C17.5921 20.5189 17.5921 20.594 17.6 20.6684V28.1404H12.8V13.7404H17.44V15.8204C17.908 15.1084 18.5511 14.5285 19.3075 14.1363C20.0639 13.7441 20.9084 13.5527 21.76 13.5804C24.24 13.5804 27.136 14.9564 27.136 19.4364L27.2 28.1404Z" fill="#EEF3F4"/>
</svg>
