<svg width="32" height="33" viewBox="0 0 32 33" fill="none" xmlns="http://www.w3.org/2000/svg">
<path d="M0 16.9404C0 23.7711 4.28133 29.6031 10.3067 31.8978C10.16 30.6484 10.004 28.5884 10.34 27.1431C10.6293 25.9004 12.208 19.2258 12.208 19.2258C12.208 19.2258 11.732 18.2724 11.732 16.8604C11.732 14.6471 13.0147 12.9938 14.6133 12.9938C15.9733 12.9938 16.6293 14.0138 16.6293 15.2364C16.6293 16.6031 15.7587 18.6458 15.3093 20.5404C14.9347 22.1258 16.1053 23.4191 17.668 23.4191C20.4987 23.4191 22.676 20.4338 22.676 16.1244C22.676 12.3098 19.9347 9.64443 16.0213 9.64443C11.4907 9.64443 8.83067 13.0431 8.83067 16.5564C8.83067 17.9258 9.35733 19.3924 10.016 20.1911C10.0722 20.2514 10.1118 20.3252 10.1312 20.4053C10.1506 20.4854 10.149 20.5691 10.1267 20.6484C10.0053 21.1524 9.736 22.2338 9.684 22.4551C9.61333 22.7458 9.45333 22.8084 9.15067 22.6671C7.16133 21.7418 5.91867 18.8338 5.91867 16.4978C5.91867 11.4724 9.568 6.8591 16.4413 6.8591C21.9667 6.8591 26.2613 10.7964 26.2613 16.0578C26.2613 21.5471 22.8013 25.9658 17.996 25.9658C16.3813 25.9658 14.8653 25.1258 14.3453 24.1351C14.3453 24.1351 13.5467 27.1778 13.3533 27.9218C12.9773 29.3671 11.9347 31.1964 11.288 32.2351C12.7787 32.6938 14.36 32.9404 16 32.9404C24.836 32.9404 32 25.7764 32 16.9404C32 8.10443 24.836 0.94043 16 0.94043C7.164 0.94043 0 8.10443 0 16.9404Z" fill="#EEF3F4"/>
</svg>
