<svg width="32" height="22" viewBox="0 0 32 22" fill="none" xmlns="http://www.w3.org/2000/svg">
<path fill-rule="evenodd" clip-rule="evenodd" d="M16.3167 0.272461C18.042 0.279128 26.2714 0.339128 28.5007 0.908461C29.878 1.25779 30.9607 2.28979 31.3314 3.60179C31.998 5.97913 31.998 10.9391 31.998 10.9391V10.9538C31.998 11.2471 31.9767 15.9711 31.3314 18.2738C30.9607 19.5845 29.878 20.6178 28.5007 20.9685C26.218 21.5511 17.6474 21.6005 16.2047 21.6045H15.7914C14.3487 21.6005 5.77805 21.5511 3.49805 20.9685C2.11805 20.6178 1.03405 19.5845 0.66738 18.2738C0.0607135 16.1205 0.00338021 11.8471 -0.00195312 11.0631V10.8138C0.00338021 10.0311 0.0607135 5.75513 0.66738 3.60179C1.03538 2.28979 2.11805 1.25779 3.49671 0.908461C5.72605 0.340461 13.954 0.279128 15.6807 0.273794L16.3167 0.272461ZM12.798 6.36579V15.5085L21.1114 10.9378L12.798 6.36446V6.36579Z" fill="#EEF3F4"/>
</svg>
