<svg width="1024" height="126" viewBox="0 0 1024 126" fill="none" xmlns="http://www.w3.org/2000/svg">
<path d="M197.784 74.3998H226.667C236.944 74.3998 242.27 78.8971 242.27 86.7629C242.27 91.6785 239.87 96.6667 231.766 98.282V98.423C242.194 99.4064 244.069 106.499 244.069 110.786C244.069 116.193 240.92 124.551 226.142 124.551H197.784V74.3998ZM201.238 97.1562H225.092C227.867 97.1562 238.819 97.1562 238.819 86.9735C238.819 77.2091 230.267 77.2091 224.564 77.2091H201.238V97.1562ZM201.238 121.739H225.391C228.091 121.739 240.619 121.739 240.619 110.501C240.619 99.967 230.416 99.967 224.491 99.967H201.238V121.739Z" fill="white"/>
<path d="M278.048 73.2769C299.803 73.2769 306.479 89.6419 306.479 99.4745C306.479 109.307 299.803 125.671 278.048 125.671C256.295 125.671 249.619 109.307 249.619 99.4745C249.619 89.6419 256.297 73.2769 278.048 73.2769ZM278.048 122.863C294.178 122.863 303.029 111.486 303.029 99.473C303.029 87.4629 294.178 76.0862 278.048 76.0862C261.921 76.0862 253.068 87.4629 253.068 99.473C253.068 111.486 261.922 122.863 278.048 122.863Z" fill="white"/>
<path d="M332.436 74.3998H336.336L360.941 124.548H357.039L349.164 108.395H319.606L311.731 124.548H307.827L332.436 74.3998ZM320.956 105.584H347.811L334.384 78.0516L320.956 105.584Z" fill="white"/>
<path d="M353.739 74.3998H400.398V77.2091H378.794V124.548H375.344V77.2091H353.739V74.3998Z" fill="white"/>
<path d="M403.771 74.3998H432.653C442.93 74.3998 448.255 78.8971 448.255 86.7629C448.255 91.6785 445.856 96.6667 437.753 98.282V98.423C448.181 99.4064 450.055 106.499 450.055 110.786C450.055 116.193 446.905 124.551 432.127 124.551H403.771V74.3998ZM407.225 97.1562H431.079C433.854 97.1562 444.806 97.1562 444.806 86.9735C444.806 77.2091 436.253 77.2091 430.553 77.2091H407.225V97.1562ZM407.225 121.739H431.378C434.078 121.739 446.604 121.739 446.604 110.501C446.604 99.967 436.403 99.967 430.477 99.967H407.225V121.739Z" fill="white"/>
<path d="M484.035 73.2769C505.79 73.2769 512.466 89.6419 512.466 99.4745C512.466 109.307 505.79 125.671 484.035 125.671C462.282 125.671 455.606 109.307 455.606 99.4745C455.606 89.6419 462.282 73.2769 484.035 73.2769ZM484.035 122.863C500.165 122.863 509.016 111.486 509.016 99.473C509.016 87.4629 500.165 76.0862 484.035 76.0862C467.909 76.0862 459.056 87.4629 459.056 99.473C459.056 111.486 467.909 122.863 484.035 122.863Z" fill="white"/>
<path d="M545.251 73.2769C567.001 73.2769 573.679 89.6419 573.679 99.4745C573.679 109.307 567.001 125.671 545.251 125.671C523.496 125.671 516.82 109.307 516.82 99.4745C516.82 89.6419 523.495 73.2769 545.251 73.2769ZM545.251 122.863C561.377 122.863 570.23 111.486 570.23 99.473C570.23 87.4629 561.377 76.0862 545.251 76.0862C529.12 76.0862 520.269 87.4629 520.269 99.473C520.269 111.486 529.12 122.863 545.251 122.863Z" fill="white"/>
<path d="M580.355 74.3998H583.807V103.199L622.365 74.3998H627.838L600.084 95.1197L629.79 124.548H624.988L597.384 97.1562L583.807 107.271V124.548H580.355V74.3998Z" fill="white"/>
<path d="M636.619 74.3998H633.163V124.548H636.619V74.3998Z" fill="white"/>
<path d="M645.617 74.3998H649.965L689.949 120.054H690.1V74.3998H693.549V124.548H689.2L649.215 78.8971H649.068V124.548H645.617V74.3998Z" fill="white"/>
<path d="M731.058 99.5472H756.04V124.548H753.036V112.186H752.884C748.838 121.178 739.759 125.669 729.483 125.669C713.203 125.669 700.975 116.049 700.975 99.4745C700.975 87.3235 709.829 73.2769 729.483 73.2769C742.61 73.2769 752.287 79.3168 754.912 90.1343H751.46C749.213 80.8623 740.209 76.0877 729.483 76.0877C714.176 76.0877 704.424 86.8325 704.424 99.4745C704.424 112.047 713.053 122.864 729.483 122.864C742.983 122.864 751.759 115.067 752.585 102.357H731.058V99.5472Z" fill="white"/>
<path d="M766.087 107.972C766.165 117.315 772.241 122.861 786.646 122.861C799.772 122.861 804.569 117.593 804.569 111.694C804.569 106.077 801.717 103.549 790.469 101.373L780.493 99.4048C768.79 97.0864 764.288 93.8559 764.288 86.2719C764.288 78.7561 771.262 73.2769 784.541 73.2769C798.043 73.2769 806.595 77.9121 806.971 88.5887H803.52C803.072 82.8292 799.616 76.0877 785.518 76.0877C772.464 76.0877 768.187 80.5805 768.187 86.3401C768.187 91.6784 770.664 94.3453 780.864 96.2454L791.895 98.279C802.622 100.247 808.472 103.478 808.472 111.485C808.472 118.297 803.67 125.669 786.939 125.669C769.387 125.669 762.635 118.575 762.635 107.971H766.087V107.972Z" fill="white"/>
<path d="M824.178 79.5971C824.178 81.5906 822.509 83.151 820.337 83.151C818.19 83.151 816.474 81.5892 816.474 79.5971C816.474 77.6496 818.188 76.0862 820.337 76.0862C822.509 76.0862 824.178 77.651 824.178 79.5971ZM817.431 79.5971C817.431 81.1605 818.668 82.402 820.36 82.402C822.008 82.402 823.222 81.1605 823.222 79.6208C823.222 78.0575 822.008 76.7952 820.338 76.7952C818.67 76.7952 817.431 78.0575 817.431 79.5971ZM819.742 81.4423H818.874V77.9314C819.215 77.8661 819.697 77.8231 820.314 77.8231C821.023 77.8231 821.341 77.9314 821.618 78.0782C821.823 78.2295 821.981 78.5084 821.981 78.851C821.981 79.2367 821.661 79.5363 821.205 79.6639V79.7069C821.571 79.8359 821.777 80.0925 821.892 80.5627C822.006 81.0967 822.074 81.3118 822.168 81.4423H821.229C821.116 81.3118 821.046 80.9929 820.931 80.5835C820.862 80.1978 820.634 80.0273 820.154 80.0273H819.742V81.4423ZM819.766 79.4488H820.178C820.658 79.4488 821.048 79.299 821.048 78.9356C821.048 78.6137 820.796 78.4016 820.248 78.4016C820.017 78.4016 819.858 78.4224 819.766 78.4416V79.4488Z" fill="white"/>
<path d="M0 111.557C162.195 66.2121 334.056 41.8493 511.998 41.8493C689.939 41.8493 861.801 66.2121 1024 111.557C873.566 62.3126 699.379 31.3387 511.998 31.3387C324.616 31.3387 150.432 62.3126 0 111.557Z" fill="white"/>
<path d="M428.667 18.4104C432.475 17.5116 436.51 16.5638 440.86 15.5448C504.53 0.640775 547.365 11.5681 556.528 13.9043C544.342 8.54962 514.595 0 486.512 0H452.362C445.713 0 442.578 1.7829 442.578 1.7829H469.345C458.178 4.53586 440.243 12.7799 428.667 18.4104Z" fill="white"/>
<path d="M603.738 7.61662C606.297 6.44186 608.95 5.32347 611.696 4.27182C549.58 -0.197294 453.643 13.8434 412.301 33.4123C456.637 16.4125 538.532 4.75092 603.738 7.61662Z" fill="white"/>
<path d="M591.847 13.8805C526.859 11.7787 448.372 22.6318 412.301 33.4108H567.595C574.19 26.3237 582.208 19.6564 591.847 13.8805Z" fill="white"/>
</svg>
