<svg width="32" height="28" viewBox="0 0 32 28" fill="none" xmlns="http://www.w3.org/2000/svg">
<path d="M10.064 27.2726C22.1396 27.2726 28.7433 17.0152 28.7433 8.11917C28.7433 7.82826 28.7375 7.53735 28.7244 7.24935C30.0151 6.29145 31.1244 5.11073 32 3.76281C30.8047 4.30673 29.5333 4.6648 28.2298 4.82463C29.6093 3.97102 30.6345 2.64834 31.1171 1.09954C29.8328 1.88183 28.4222 2.43456 26.9484 2.73299C26.3416 2.06432 25.6019 1.52976 24.7766 1.16356C23.9513 0.797365 23.0585 0.607607 22.1556 0.606445C18.5295 0.606445 15.5898 3.62172 15.5898 7.33808C15.5898 7.86608 15.648 8.37953 15.76 8.87262C10.304 8.5919 5.46473 5.91263 2.22545 1.8399C1.64163 2.87176 1.33589 4.0376 1.33818 5.22317C1.33818 7.55917 2.49745 9.62026 4.26036 10.8261C3.21491 10.7928 2.19357 10.5036 1.28582 9.9839V10.0712C1.28582 13.3308 3.54764 16.0523 6.55127 16.6704C5.58536 16.9377 4.57061 16.977 3.58691 16.7853C4.42327 19.4603 6.84509 21.4064 9.72073 21.4603C8.37007 22.5529 6.81354 23.363 5.14365 23.8422C3.47375 24.3215 1.72456 24.4602 0 24.2501C2.98558 26.2233 6.4853 27.2753 10.064 27.2755" fill="#EEF3F4"/>
</svg>
